<svg version="1.1" id="Layer_1" xmlns="http://www.w3.org/2000/svg" xmlns:xlink="http://www.w3.org/1999/xlink" x="0px" y="0px"
	 width="100%" viewBox="0 0 143 117" enable-background="new 0 0 143 117" xml:space="preserve">
<path fill="#FFFEFE" opacity="1.000000" stroke="none"
	d="
M16.000000,1.000000
	C58.612354,1.000000 101.224709,1.000000 143.918533,1.000000
	C143.918533,39.895893 143.918533,78.792015 143.918533,118.000000
	C111.313103,118.000000 78.625206,118.000000 45.598778,117.663612
	C51.761806,115.407341 55.564053,111.981415 55.139034,106.558517
	C54.852863,102.907227 53.218292,98.748161 50.829601,95.993095
	C44.332531,88.499512 37.113884,81.631546 29.757692,74.080902
	C36.592983,67.423683 43.454590,60.866669 50.171585,54.164722
	C57.417446,46.935085 57.394653,40.678600 50.259220,33.511456
	C42.150913,25.367119 34.090969,17.172058 25.849699,9.164017
	C22.800859,6.201459 19.296572,3.707611 16.000000,1.000000
M108.811272,71.688606
	C112.814049,75.685402 116.634071,79.889259 120.867065,83.625206
	C125.868240,88.039131 132.819031,87.644150 137.079514,83.153282
	C141.447021,78.549614 141.653778,71.069389 137.124023,66.439453
	C127.000786,56.092339 116.776344,45.840168 106.416748,35.730053
	C101.137367,30.577806 94.847794,30.450478 89.514786,35.596718
	C79.099640,45.647095 68.758812,55.798950 58.917076,66.400673
	C56.654583,68.837883 55.591408,73.282471 55.661633,76.769318
	C55.753487,81.329887 59.002510,84.516716 63.538368,86.054016
	C68.379738,87.694855 72.423058,86.172523 75.842331,82.852119
	C83.216362,75.691307 90.453560,68.389572 98.066032,60.828365
	C101.571083,64.372574 104.941429,67.780579 108.811272,71.688606
z"/>
<path fill="#DD1D59" opacity="1.000000" stroke="none"
	d="
M15.571538,1.000000
	C19.296572,3.707611 22.800859,6.201459 25.849699,9.164017
	C34.090969,17.172058 42.150913,25.367119 50.259220,33.511456
	C57.394653,40.678600 57.417446,46.935085 50.171585,54.164722
	C43.454590,60.866669 36.592983,67.423683 29.757692,74.080902
	C37.113884,81.631546 44.332531,88.499512 50.829601,95.993095
	C53.218292,98.748161 54.852863,102.907227 55.139034,106.558517
	C55.564053,111.981415 51.761806,115.407341 45.130119,117.663612
	C43.933331,118.000000 42.866661,118.000000 41.298607,117.668167
	C38.733639,115.996704 36.355255,114.970734 34.657379,113.266708
	C23.357008,101.925423 12.202155,90.439148 1.000001,79.000000
	C1.000000,76.958336 1.000000,74.916664 1.191211,72.155510
	C3.071051,69.030518 4.474181,66.346291 6.500655,64.270630
	C13.175901,57.433365 20.076830,50.816437 26.875351,44.130360
	C17.840637,34.657444 9.420319,25.828722 1.000000,17.000000
	C1.000000,14.958333 1.000000,12.916667 1.270606,10.233435
	C4.360808,6.727913 7.180404,3.863956 10.000000,1.000000
	C11.714358,1.000000 13.428718,1.000000 15.571538,1.000000
z"/>
<path fill="#FFFDFD" opacity="1.000000" stroke="none"
	d="
M1.000001,79.468658
	C12.202155,90.439148 23.357008,101.925423 34.657379,113.266708
	C36.355255,114.970734 38.733639,115.996704 40.898613,117.668167
	C27.740948,118.000000 14.481894,118.000000 1.000000,118.000000
	C1.000000,105.313309 1.000000,92.625313 1.000001,79.468658
z"/>
<path fill="#FFFCFD" opacity="1.000000" stroke="none"
	d="
M1.000000,17.468658
	C9.420319,25.828722 17.840637,34.657444 26.875351,44.130360
	C20.076830,50.816437 13.175901,57.433365 6.500655,64.270630
	C4.474181,66.346291 3.071051,69.030518 1.191211,71.718010
	C1.000000,53.979103 1.000000,35.958210 1.000000,17.468658
z"/>
<path fill="#FCEDF2" opacity="1.000000" stroke="none"
	d="
M9.508951,1.000000
	C7.180404,3.863956 4.360808,6.727913 1.270606,9.795935
	C1.000000,7.082645 1.000000,4.165290 1.000000,1.000000
	C3.670005,1.000000 6.343954,1.000000 9.508951,1.000000
z"/>
<path fill="#DD1D5A" opacity="1.000000" stroke="none"
	d="
M108.561523,71.438599
	C104.941429,67.780579 101.571083,64.372574 98.066032,60.828365
	C90.453560,68.389572 83.216362,75.691307 75.842331,82.852119
	C72.423058,86.172523 68.379738,87.694855 63.538368,86.054016
	C59.002510,84.516716 55.753487,81.329887 55.661633,76.769318
	C55.591408,73.282471 56.654583,68.837883 58.917076,66.400673
	C68.758812,55.798950 79.099640,45.647095 89.514786,35.596718
	C94.847794,30.450478 101.137367,30.577806 106.416748,35.730053
	C116.776344,45.840168 127.000786,56.092339 137.124023,66.439453
	C141.653778,71.069389 141.447021,78.549614 137.079514,83.153282
	C132.819031,87.644150 125.868240,88.039131 120.867065,83.625206
	C116.634071,79.889259 112.814049,75.685402 108.561523,71.438599
z"/>
</svg>
